<svg width="1080" height="1000" xmlns="http://www.w3.org/2000/svg" xmlns:svg="http://www.w3.org/2000/svg">
 <!-- Created with Method Draw - http://github.com/duopixel/Method-Draw/ -->
 <g>
  <g id="2001">
   <rect fill="#fff" stroke-width="1.5" x="710" y="780" width="20" height="40" id="15" stroke="#000"/>
   <rect fill="#fff" stroke-width="1.5" x="745" y="780" width="20" height="40" id="16" stroke="#000"/>
   <rect fill="#fff" stroke-width="1.5" x="640" y="780" width="20" height="40" id="13" stroke="#000"/>
   <rect fill="#fff" stroke-width="1.5" x="675" y="780" width="20" height="40" id="14" stroke="#000"/>
   <rect fill="#fff" stroke-width="1.5" x="890" y="780" width="20" height="40" id="19" stroke="#000"/>
   <rect fill="#fff" stroke-width="1.5" x="925" y="780" width="20" height="40" id="20" stroke="#000"/>
   <rect fill="#fff" stroke-width="1.5" x="820" y="780" width="20" height="40" id="17" stroke="#000"/>
   <rect fill="#fff" stroke-width="1.5" x="855" y="780" width="20" height="40" id="18" stroke="#000"/>
   <rect fill="#fff" stroke-width="1.5" x="170" y="780" width="20" height="40" id="3" stroke="#000"/>
   <rect fill="#fff" stroke-width="1.5" x="205" y="780" width="20" height="40" id="4" stroke="#000"/>
   <rect fill="#fff" stroke-width="1.5" x="100" y="780" width="20" height="40" id="1" stroke="#000"/>
   <rect fill="#fff" stroke-width="1.5" x="135" y="780" width="20" height="40" id="2" stroke="#000"/>
   <rect fill="#fff" stroke-width="1.5" x="350" y="780" width="20" height="40" id="7" stroke="#000"/>
   <rect fill="#fff" stroke-width="1.5" x="385" y="780" width="20" height="40" id="8" stroke="#000"/>
   <rect fill="#fff" stroke-width="1.5" x="280" y="780" width="20" height="40" id="5" stroke="#000"/>
   <rect fill="#fff" stroke-width="1.5" x="315" y="780" width="20" height="40" id="6" stroke="#000"/>
   <rect fill="#fff" stroke-width="1.5" x="530" y="780" width="20" height="40" id="11" stroke="#000"/>
   <rect fill="#fff" stroke-width="1.5" x="565" y="780" width="20" height="40" id="12" stroke="#000"/>
   <rect fill="#fff" stroke-width="1.5" x="460" y="780" width="20" height="40" id="9" stroke="#000"/>
   <rect fill="#fff" stroke-width="1.5" x="495" y="780" width="20" height="40" id="10" stroke="#000"/>
  </g>
  <g id="6001">
   <rect fill="#fff" stroke-width="1.5" x="855" y="620" width="20" height="40" id="58" stroke="#000"/>
   <rect fill="#fff" stroke-width="1.5" x="925" y="680" width="20" height="40" id="40" stroke="#000"/>
   <rect fill="#fff" stroke-width="1.5" x="855" y="680" width="20" height="40" id="38" stroke="#000"/>
   <rect fill="#fff" stroke-width="1.5" x="820" y="680" width="20" height="40" id="37" stroke="#000"/>
   <rect fill="#fff" stroke-width="1.5" x="820" y="620" width="20" height="40" id="57" stroke="#000"/>
   <rect fill="#fff" stroke-width="1.5" x="890" y="620" width="20" height="40" id="59" stroke="#000"/>
   <rect fill="#fff" stroke-width="1.5" x="925" y="620" width="20" height="40" id="60" stroke="#000"/>
   <rect fill="#fff" stroke-width="1.5" x="890" y="680" width="20" height="40" id="39" stroke="#000"/>
   <rect fill="#fff" stroke-width="1.5" x="315" y="620" width="20" height="40" id="46" stroke="#000"/>
   <rect fill="#fff" stroke-width="1.5" x="385" y="680" width="20" height="40" id="28" stroke="#000"/>
   <rect fill="#fff" stroke-width="1.5" x="315" y="680" width="20" height="40" id="26" stroke="#000"/>
   <rect fill="#fff" stroke-width="1.5" x="280" y="680" width="20" height="40" id="25" stroke="#000"/>
   <rect fill="#fff" stroke-width="1.5" x="280" y="620" width="20" height="40" id="45" stroke="#000"/>
   <rect fill="#fff" stroke-width="1.5" x="350" y="620" width="20" height="40" id="47" stroke="#000"/>
   <rect fill="#fff" stroke-width="1.5" x="385" y="620" width="20" height="40" id="48" stroke="#000"/>
   <rect fill="#fff" stroke-width="1.5" x="350" y="680" width="20" height="40" id="27" stroke="#000"/>
   <rect fill="#fff" stroke-width="1.5" x="495" y="620" width="20" height="40" id="50" stroke="#000"/>
   <rect fill="#fff" stroke-width="1.5" x="565" y="680" width="20" height="40" id="32" stroke="#000"/>
   <rect fill="#fff" stroke-width="1.5" x="495" y="680" width="20" height="40" id="30" stroke="#000"/>
   <rect fill="#fff" stroke-width="1.5" x="460" y="680" width="20" height="40" id="29" stroke="#000"/>
   <rect fill="#fff" stroke-width="1.5" x="460" y="620" width="20" height="40" id="49" stroke="#000"/>
   <rect fill="#fff" stroke-width="1.5" x="530" y="620" width="20" height="40" id="51" stroke="#000"/>
   <rect fill="#fff" stroke-width="1.5" x="565" y="620" width="20" height="40" id="52" stroke="#000"/>
   <rect fill="#fff" stroke-width="1.5" x="530" y="680" width="20" height="40" id="31" stroke="#000"/>
   <rect fill="#fff" stroke-width="1.5" x="675" y="620" width="20" height="40" id="54" stroke="#000"/>
   <rect fill="#fff" stroke-width="1.5" x="745" y="680" width="20" height="40" id="36" stroke="#000"/>
   <rect fill="#fff" stroke-width="1.5" x="675" y="680" width="20" height="40" id="34" stroke="#000"/>
   <rect fill="#fff" stroke-width="1.5" x="640" y="680" width="20" height="40" id="33" stroke="#000"/>
   <rect fill="#fff" stroke-width="1.5" x="640" y="620" width="20" height="40" id="53" stroke="#000"/>
   <rect fill="#fff" stroke-width="1.5" x="710" y="620" width="20" height="40" id="55" stroke="#000"/>
   <rect fill="#fff" stroke-width="1.5" x="745" y="620" width="20" height="40" id="56" stroke="#000"/>
   <rect fill="#fff" stroke-width="1.5" x="710" y="680" width="20" height="40" id="35" stroke="#000"/>
   <rect fill="#fff" stroke-width="1.5" x="135" y="620" width="20" height="40" id="42" stroke="#000"/>
   <rect fill="#fff" stroke-width="1.5" x="205" y="680" width="20" height="40" id="24" stroke="#000"/>
   <rect fill="#fff" stroke-width="1.5" x="135" y="680" width="20" height="40" id="22" stroke="#000"/>
   <rect fill="#fff" stroke-width="1.5" x="100" y="680" width="20" height="40" id="21" stroke="#000"/>
   <rect fill="#fff" stroke-width="1.5" x="100" y="620" width="20" height="40" id="41" stroke="#000"/>
   <rect fill="#fff" stroke-width="1.5" x="170" y="620" width="20" height="40" id="43" stroke="#000"/>
   <rect fill="#fff" stroke-width="1.5" x="205" y="620" width="20" height="40" id="44" stroke="#000"/>
   <rect fill="#fff" stroke-width="1.5" x="170" y="680" width="20" height="40" id="23" stroke="#000"/>
  </g>
  <g id="7900">
   <rect fill="#fff" stroke-width="1.5" x="345" y="460" width="20" height="40" id="77" stroke="#000"/>
   <rect fill="#fff" stroke-width="1.5" x="205" y="520" width="20" height="40" id="64" stroke="#000"/>
   <rect fill="#fff" stroke-width="1.5" x="100" y="520" width="20" height="40" id="61" stroke="#000"/>
   <rect fill="#fff" stroke-width="1.5" x="135" y="520" width="20" height="40" id="62" stroke="#000"/>
   <rect fill="#fff" stroke-width="1.5" x="100" y="460" width="20" height="40" id="70" stroke="#000"/>
   <rect fill="#fff" stroke-width="1.5" x="310" y="460" width="20" height="40" id="76" stroke="#000"/>
   <rect fill="#fff" stroke-width="1.5" x="170" y="460" width="20" height="40" id="72" stroke="#000"/>
   <rect fill="#fff" stroke-width="1.5" x="310" y="520" width="20" height="40" id="67" stroke="#000"/>
   <rect fill="#fff" stroke-width="1.5" x="205" y="460" width="20" height="40" id="73" stroke="#000"/>
   <rect fill="#fff" stroke-width="1.5" x="240" y="520" width="20" height="40" id="65" stroke="#000"/>
   <rect fill="#fff" stroke-width="1.5" x="380" y="520" width="20" height="40" id="69" stroke="#000"/>
   <rect fill="#fff" stroke-width="1.5" x="240" y="460" width="20" height="40" id="74" stroke="#000"/>
   <rect fill="#fff" stroke-width="1.5" x="135" y="460" width="20" height="40" id="71" stroke="#000"/>
   <rect fill="#fff" stroke-width="1.5" x="380" y="460" width="20" height="40" id="78" stroke="#000"/>
   <rect fill="#fff" stroke-width="1.5" x="275" y="460" width="20" height="40" id="75" stroke="#000"/>
   <rect fill="#fff" stroke-width="1.5" x="345" y="520" width="20" height="40" id="68" stroke="#000"/>
   <rect fill="#fff" stroke-width="1.5" x="275" y="520" width="20" height="40" id="66" stroke="#000"/>
   <rect fill="#fff" stroke-width="1.5" x="170" y="520" width="20" height="40" id="63" stroke="#000"/>
  </g>
  <g id="9700">
   <rect fill="#fff" stroke-width="1.5" x="920" y="520" width="20" height="40" id="87" stroke="#000"/>
   <rect fill="#fff" stroke-width="1.5" x="920" y="460" width="20" height="40" id="96" stroke="#000"/>
   <rect fill="#fff" stroke-width="1.5" x="815" y="460" width="20" height="40" id="93" stroke="#000"/>
   <rect fill="#fff" stroke-width="1.5" x="885" y="520" width="20" height="40" id="86" stroke="#000"/>
   <rect fill="#fff" stroke-width="1.5" x="815" y="520" width="20" height="40" id="84" stroke="#000"/>
   <rect fill="#fff" stroke-width="1.5" x="780" y="520" width="20" height="40" id="83" stroke="#000"/>
   <rect fill="#fff" stroke-width="1.5" x="780" y="460" width="20" height="40" id="92" stroke="#000"/>
   <rect fill="#fff" stroke-width="1.5" x="850" y="460" width="20" height="40" id="94" stroke="#000"/>
   <rect fill="#fff" stroke-width="1.5" x="885" y="460" width="20" height="40" id="95" stroke="#000"/>
   <rect fill="#fff" stroke-width="1.5" x="850" y="520" width="20" height="40" id="85" stroke="#000"/>
   <rect fill="#fff" stroke-width="1.5" x="675" y="460" width="20" height="40" id="89" stroke="#000"/>
   <rect fill="#fff" stroke-width="1.5" x="745" y="520" width="20" height="40" id="82" stroke="#000"/>
   <rect fill="#fff" stroke-width="1.5" x="675" y="520" width="20" height="40" id="80" stroke="#000"/>
   <rect fill="#fff" stroke-width="1.5" x="640" y="520" width="20" height="40" id="79" stroke="#000"/>
   <rect fill="#fff" stroke-width="1.5" x="640" y="460" width="20" height="40" id="88" stroke="#000"/>
   <rect fill="#fff" stroke-width="1.5" x="710" y="460" width="20" height="40" id="90" stroke="#000"/>
   <rect fill="#fff" stroke-width="1.5" x="745" y="460" width="20" height="40" id="91" stroke="#000"/>
   <rect fill="#fff" stroke-width="1.5" x="710" y="520" width="20" height="40" id="81" stroke="#000"/>
  </g>
  <g id="1370">
   <rect fill="#fff" stroke-width="1.5" x="855" y="300" width="20" height="40" id="134" stroke="#000"/>
   <rect fill="#fff" stroke-width="1.5" x="925" y="360" width="20" height="40" id="116" stroke="#000"/>
   <rect fill="#fff" stroke-width="1.5" x="855" y="360" width="20" height="40" id="114" stroke="#000"/>
   <rect fill="#fff" stroke-width="1.5" x="820" y="360" width="20" height="40" id="113" stroke="#000"/>
   <rect fill="#fff" stroke-width="1.5" x="820" y="300" width="20" height="40" id="133" stroke="#000"/>
   <rect fill="#fff" stroke-width="1.5" x="890" y="300" width="20" height="40" id="135" stroke="#000"/>
   <rect fill="#fff" stroke-width="1.5" x="925" y="300" width="20" height="40" id="136" stroke="#000"/>
   <rect fill="#fff" stroke-width="1.5" x="890" y="360" width="20" height="40" id="115" stroke="#000"/>
   <rect fill="#fff" stroke-width="1.5" x="315" y="300" width="20" height="40" id="122" stroke="#000"/>
   <rect fill="#fff" stroke-width="1.5" x="385" y="360" width="20" height="40" id="104" stroke="#000"/>
   <rect fill="#fff" stroke-width="1.5" x="315" y="360" width="20" height="40" id="102" stroke="#000"/>
   <rect fill="#fff" stroke-width="1.5" x="280" y="360" width="20" height="40" id="101" stroke="#000"/>
   <rect fill="#fff" stroke-width="1.5" x="280" y="300" width="20" height="40" id="121" stroke="#000"/>
   <rect fill="#fff" stroke-width="1.5" x="350" y="300" width="20" height="40" id="123" stroke="#000"/>
   <rect fill="#fff" stroke-width="1.5" x="385" y="300" width="20" height="40" id="124" stroke="#000"/>
   <rect fill="#fff" stroke-width="1.5" x="350" y="360" width="20" height="40" id="103" stroke="#000"/>
   <rect fill="#fff" stroke-width="1.5" x="495" y="300" width="20" height="40" id="126" stroke="#000"/>
   <rect fill="#fff" stroke-width="1.5" x="565" y="360" width="20" height="40" id="108" stroke="#000"/>
   <rect fill="#fff" stroke-width="1.5" x="495" y="360" width="20" height="40" id="106" stroke="#000"/>
   <rect fill="#fff" stroke-width="1.5" x="460" y="360" width="20" height="40" id="105" stroke="#000"/>
   <rect fill="#fff" stroke-width="1.5" x="460" y="300" width="20" height="40" id="125" stroke="#000"/>
   <rect fill="#fff" stroke-width="1.5" x="530" y="300" width="20" height="40" id="127" stroke="#000"/>
   <rect fill="#fff" stroke-width="1.5" x="565" y="300" width="20" height="40" id="128" stroke="#000"/>
   <rect fill="#fff" stroke-width="1.5" x="530" y="360" width="20" height="40" id="107" stroke="#000"/>
   <rect fill="#fff" stroke-width="1.5" x="675" y="300" width="20" height="40" id="130" stroke="#000"/>
   <rect fill="#fff" stroke-width="1.5" x="745" y="360" width="20" height="40" id="112" stroke="#000"/>
   <rect fill="#fff" stroke-width="1.5" x="675" y="360" width="20" height="40" id="110" stroke="#000"/>
   <rect fill="#fff" stroke-width="1.5" x="640" y="360" width="20" height="40" id="109" stroke="#000"/>
   <rect fill="#fff" stroke-width="1.5" x="640" y="300" width="20" height="40" id="129" stroke="#000"/>
   <rect fill="#fff" stroke-width="1.5" x="710" y="300" width="20" height="40" id="131" stroke="#000"/>
   <rect fill="#fff" stroke-width="1.5" x="745" y="300" width="20" height="40" id="132" stroke="#000"/>
   <rect fill="#fff" stroke-width="1.5" x="710" y="360" width="20" height="40" id="111" stroke="#000"/>
   <rect fill="#fff" stroke-width="1.5" x="135" y="300" width="20" height="40" id="118" stroke="#000"/>
   <rect fill="#fff" stroke-width="1.5" x="205" y="360" width="20" height="40" id="100" stroke="#000"/>
   <rect fill="#fff" stroke-width="1.5" x="135" y="360" width="20" height="40" id="98" stroke="#000"/>
   <rect fill="#fff" stroke-width="1.5" x="100" y="360" width="20" height="40" id="97" stroke="#000"/>
   <rect fill="#fff" stroke-width="1.5" x="100" y="300" width="20" height="40" id="117" stroke="#000"/>
   <rect fill="#fff" stroke-width="1.5" x="170" y="300" width="20" height="40" id="119" stroke="#000"/>
   <rect fill="#fff" stroke-width="1.5" x="205" y="300" width="20" height="40" id="120" stroke="#000"/>
   <rect fill="#fff" stroke-width="1.5" x="170" y="360" width="20" height="40" id="99" stroke="#000"/>
  </g>
  <g id="157">
   <rect fill="#fff" stroke-width="1.5" x="855" y="170" width="20" height="40" id="154" stroke="#000"/>
   <rect fill="#fff" stroke-width="1.5" x="565" y="170" width="20" height="40" id="148" stroke="#000"/>
   <rect fill="#fff" stroke-width="1.5" x="675" y="170" width="20" height="40" id="150" stroke="#000"/>
   <rect fill="#fff" stroke-width="1.5" x="460" y="170" width="20" height="40" id="145" stroke="#000"/>
   <rect fill="#fff" stroke-width="1.5" x="170" y="170" width="20" height="40" id="139" stroke="#000"/>
   <rect fill="#fff" stroke-width="1.5" x="205" y="170" width="20" height="40" id="140" stroke="#000"/>
   <rect fill="#fff" stroke-width="1.5" x="100" y="170" width="20" height="40" id="137" stroke="#000"/>
   <rect fill="#fff" stroke-width="1.5" x="135" y="170" width="20" height="40" id="138" stroke="#000"/>
   <rect fill="#fff" stroke-width="1.5" x="350" y="170" width="20" height="40" id="143" stroke="#000"/>
   <rect fill="#fff" stroke-width="1.5" x="745" y="170" width="20" height="40" id="152" stroke="#000"/>
   <rect fill="#fff" stroke-width="1.5" x="640" y="170" width="20" height="40" id="149" stroke="#000"/>
   <rect fill="#fff" stroke-width="1.5" x="890" y="170" width="20" height="40" id="155" stroke="#000"/>
   <rect fill="#fff" stroke-width="1.5" x="925" y="170" width="20" height="40" id="156" stroke="#000"/>
   <rect fill="#fff" stroke-width="1.5" x="820" y="170" width="20" height="40" id="153" stroke="#000"/>
   <rect fill="#fff" stroke-width="1.5" x="495" y="170" width="20" height="40" id="146" stroke="#000"/>
   <rect fill="#fff" stroke-width="1.5" x="710" y="170" width="20" height="40" id="151" stroke="#000"/>
   <rect fill="#fff" stroke-width="1.5" x="385" y="170" width="20" height="40" id="144" stroke="#000"/>
   <rect fill="#fff" stroke-width="1.5" x="280" y="170" width="20" height="40" id="141" stroke="#000"/>
   <rect fill="#fff" stroke-width="1.5" x="315" y="170" width="20" height="40" id="142" stroke="#000"/>
   <rect fill="#fff" stroke-width="1.5" x="530" y="170" width="20" height="40" id="147" stroke="#000"/>
  </g>
 </g>
</svg>